# xmcd
#
# Track frame offsets:
#	182
#	20675
#	41280
#	61387
#	78492
#	90535
#	116035
#	135472
#	157850
#
# Disc length: 2298 seconds
#
# Revision: 4
# Processed by: cddbd v1.5.1PL2 Copyright (c) Steve Scherf et al.
# Submitted via: dBpowerAMP V4.0
#
DISCID=6708f809,7008f809
DTITLE=CV Jørgensen - Vennerne and vejen
DYEAR=1985
DGENRE=Rock
TTITLE0=Datadisciplin
TTITLE1=Endnu en weekend
TTITLE2=Vennerne and mig
TTITLE3=Morgendagens stjerner
TTITLE4=Altmuligmanden
TTITLE5=Messe for en masse
TTITLE6=Emigration
TTITLE7=Vive la vie
TTITLE8=Outro
EXTD=
EXTT0=
EXTT1=
EXTT2=
EXTT3=
EXTT4=
EXTT5=
EXTT6=
EXTT7=
EXTT8=
PLAYORDER=
